<svg width="61" height="64" viewBox="0 0 61 64" fill="none" xmlns="http://www.w3.org/2000/svg">
<path d="M57.5291 22.7894L52.2878 13.7104C51.6006 12.5184 50.6228 11.5198 49.4457 10.8075C48.2685 10.0951 46.9302 9.69232 45.5554 9.63652C44.1807 9.58071 42.8141 9.87373 41.5831 10.4883C40.3521 11.1029 39.2966 12.019 38.515 13.1513L34.0483 5.40881C33.3417 4.18523 32.3293 3.16628 31.1103 2.45187C29.8912 1.73746 28.5075 1.35212 27.0946 1.33362C25.6818 1.31512 24.2885 1.66411 23.0511 2.34636C21.8138 3.02861 20.7751 4.0207 20.0367 5.22537C18.5946 3.92707 16.7368 3.18565 14.7971 3.13436C12.8574 3.08306 10.963 3.72525 9.45431 4.94551C7.94564 6.16578 6.92165 7.8841 6.56635 9.79169C6.21106 11.6993 6.54775 13.671 7.51593 15.3526L8.48848 17.0386C7.11685 17.1488 5.79543 17.6044 4.64732 18.3629C3.49921 19.1214 2.56177 20.1582 1.92232 21.3767C1.28286 22.5951 0.962205 23.9556 0.990215 25.3314C1.01822 26.7071 1.39399 28.0534 2.08251 29.2448L13.1474 48.4103C14.8229 51.3297 17.0606 53.8879 19.731 55.9371C22.4015 57.9863 25.4516 59.4857 28.7051 60.3487C30.882 60.9302 33.1258 61.2239 35.379 61.2223C39.873 61.2148 44.2861 60.0256 48.1753 57.7738C52.0645 55.5221 55.2932 52.2871 57.5372 48.3934C59.7813 44.4997 60.9618 40.0843 60.9604 35.5903C60.9589 31.0963 59.7756 26.6816 57.5291 22.7894ZM55.5869 41.026C54.5139 45.0312 52.2772 48.6284 49.1599 51.3625C46.0425 54.0966 42.1843 55.8448 38.0733 56.3862C33.9623 56.9276 29.7831 56.2378 26.0642 54.4039C22.3452 52.5701 19.2536 49.6747 17.1802 46.0838L6.11536 26.9183C5.88593 26.5208 5.73703 26.082 5.67718 25.627C5.61732 25.172 5.64768 24.7096 5.76652 24.2663C6.00651 23.371 6.59233 22.6078 7.39509 22.1444C8.19786 21.681 9.15181 21.5556 10.0471 21.7956C10.4904 21.9144 10.9059 22.1194 11.27 22.3988C11.6341 22.6782 11.9396 23.0267 12.169 23.4241L18.575 34.5181C18.7234 34.7915 18.9251 35.0323 19.1681 35.2265C19.4112 35.4207 19.6906 35.5642 19.99 35.6486C20.2894 35.733 20.6027 35.7565 20.9114 35.7179C21.22 35.6793 21.5178 35.5792 21.7872 35.4236C22.0566 35.268 22.292 35.0601 22.4797 34.812C22.6674 34.5639 22.8035 34.2808 22.88 33.9793C22.9565 33.6778 22.9718 33.364 22.9251 33.0564C22.8783 32.7489 22.7704 32.4538 22.6078 32.1887L11.543 13.0261C11.1975 12.4276 11.0372 11.74 11.0825 11.0504C11.1277 10.3608 11.3764 9.70008 11.7972 9.15183C12.218 8.60359 12.7919 8.19243 13.4463 7.97036C14.1008 7.74829 14.8064 7.72527 15.4739 7.90423C15.9179 8.02134 16.3342 8.22555 16.6986 8.50498C17.0631 8.78441 17.3683 9.13349 17.5966 9.53192L27.4967 26.6795C27.8142 27.1971 28.3212 27.5703 28.9097 27.7196C29.4983 27.8689 30.1218 27.7825 30.6476 27.4788C31.1734 27.1751 31.5598 26.6781 31.7245 26.0937C31.8893 25.5093 31.8193 24.8837 31.5296 24.3501L23.9589 11.247C23.5155 10.4458 23.4044 9.5026 23.6493 8.62031C23.8943 7.73801 24.4758 6.98713 25.2688 6.52921C26.0617 6.0713 27.0027 5.94295 27.8893 6.17179C28.776 6.40062 29.5373 6.96834 30.0096 7.75281L40 25.0548C37.4568 27.1619 35.7404 30.1004 35.1543 33.3507C34.5681 36.6011 35.15 39.954 36.797 42.8168C37.1059 43.3519 37.6148 43.7425 38.2116 43.9025C38.8085 44.0625 39.4445 43.9788 39.9796 43.6699C40.5148 43.361 40.9054 42.8522 41.0654 42.2553C41.2254 41.6585 41.1417 41.0225 40.8328 40.4873C39.5974 38.3473 39.2626 35.8043 39.902 33.4175C40.5414 31.0307 42.1027 28.9956 44.2425 27.7598C44.5076 27.6069 44.7399 27.4033 44.9262 27.1606C45.1125 26.9179 45.2492 26.6408 45.3284 26.3453C45.4076 26.0497 45.4279 25.7415 45.3879 25.4381C45.348 25.1347 45.2487 24.8422 45.0957 24.5772L42.1839 19.534C41.7405 18.7328 41.6293 17.7896 41.8743 16.9073C42.1193 16.025 42.7008 15.2741 43.4937 14.8162C44.2867 14.3583 45.2277 14.2299 46.1143 14.4588C47.0009 14.6876 47.7623 15.2553 48.2346 16.0398L53.4758 25.1188C54.8623 27.4984 55.7628 30.1294 56.1252 32.8594C56.4875 35.5894 56.3046 38.3643 55.5869 41.0231V41.026ZM47.067 2.38636C47.146 2.09073 47.2826 1.81357 47.4688 1.57073C47.655 1.32789 47.8873 1.12413 48.1523 0.971075C48.4173 0.818024 48.7098 0.718688 49.0132 0.678743C49.3167 0.638798 49.625 0.659027 49.9205 0.738275C54.5532 1.98162 58.3648 4.84683 60.6534 8.81271C60.9623 9.34788 61.046 9.98385 60.886 10.5807C60.726 11.1776 60.3355 11.6864 59.8003 11.9953C59.2651 12.3042 58.6291 12.3879 58.0323 12.2279C57.4354 12.0679 56.9266 11.6773 56.6177 11.1422C54.9521 8.25364 52.1452 6.15714 48.715 5.23992C48.4194 5.16085 48.1423 5.0243 47.8994 4.83808C47.6566 4.65186 47.4528 4.41961 47.2998 4.15461C47.1467 3.88961 47.0474 3.59705 47.0074 3.29365C46.9675 2.99024 46.9877 2.68194 47.067 2.38636ZM16.9706 62.6811C16.7812 62.9215 16.5462 63.1223 16.2792 63.2719C16.0122 63.4215 15.7183 63.517 15.4144 63.553C15.1104 63.5889 14.8024 63.5646 14.5078 63.4815C14.2133 63.3983 13.938 63.258 13.6977 63.0684C10.4947 60.538 7.84205 57.367 5.36993 53.0867C5.06103 52.5515 4.97738 51.9156 5.13737 51.3187C5.29737 50.7218 5.68792 50.213 6.22309 49.9041C6.75827 49.5952 7.39423 49.5115 7.99109 49.6715C8.58794 49.8315 9.09679 50.2221 9.40569 50.7573C11.5721 54.5077 13.852 57.2564 16.5833 59.4111C17.068 59.7936 17.3811 60.3528 17.4537 60.966C17.5263 61.5791 17.3526 62.196 16.9706 62.6811Z" fill="#424242"/>
<path opacity="0.2" d="M55.6093 25.3426L50.4095 16.5454C49.6379 15.26 48.377 14.3248 46.902 13.9439C45.427 13.563 43.8576 13.7674 42.5363 14.5125C41.2151 15.2575 40.2492 16.4828 39.8494 17.9208C39.4497 19.3588 39.6486 20.8929 40.4026 22.1883L32.314 8.50443C31.5265 7.2514 30.2694 6.34801 28.8103 5.98656C27.3511 5.6251 25.8052 5.83413 24.5014 6.56914C23.1977 7.30415 22.2392 8.5071 21.8299 9.92194C21.4206 11.3368 21.5929 12.8518 22.31 14.1444L19.9989 10.2368C19.2273 8.9513 17.9665 8.01609 16.4915 7.63522C15.0165 7.25436 13.4471 7.45875 12.1258 8.20381C10.8045 8.94887 9.83864 10.1741 9.4389 11.6121C9.03916 13.0502 9.23802 14.5842 9.9921 15.8796L13.4587 21.7566L13.1207 22.0387C12.06 21.2435 10.7496 20.8322 9.41312 20.875C8.07662 20.9178 6.79671 21.4121 5.79164 22.2736C4.78657 23.135 4.11857 24.3103 3.90155 25.599C3.68454 26.8877 3.93194 28.2101 4.60158 29.3405L15.5791 47.9139C18.6437 53.0984 23.6916 56.8815 29.6122 58.431C35.5328 59.9805 41.8411 59.1695 47.1495 56.1764C52.4578 53.1832 56.3313 48.2532 57.9178 42.4707C59.5044 36.6882 58.674 30.5271 55.6093 25.3426ZM38.9727 42.4516L39.0218 42.4234L39.0622 42.4911L38.9727 42.4516Z" fill="#424242"/>
</svg>
